<mxfile host="app.diagrams.net" modified="2020-12-29T01:26:07.476Z" agent="5.0 (Macintosh; Intel Mac OS X 10_15_7) AppleWebKit/537.36 (KHTML, like Gecko) Chrome/87.0.4280.88 Safari/537.36" etag="DeSYwKlSpAy5PVxVzFgf" version="14.1.2" type="github">
  <diagram id="2Hf9CZ00S8ynS14T1NxW" name="Page-1">
    <mxGraphModel dx="3863" dy="1019" grid="1" gridSize="10" guides="1" tooltips="1" connect="1" arrows="1" fold="1" page="1" pageScale="1" pageWidth="2336" pageHeight="1654" math="0" shadow="0">
      <root>
        <mxCell id="0" />
        <mxCell id="1" parent="0" />
        <mxCell id="Nrrt7rBhLRxhSk5ey4vq-53" value="" style="rounded=1;whiteSpace=wrap;html=1;strokeWidth=1;fillColor=none;fontSize=7;fontColor=#1820F5;strokeColor=#1820F5;" parent="1" vertex="1">
          <mxGeometry x="-262.5" y="1563.87" width="159" height="91.75" as="geometry" />
        </mxCell>
        <mxCell id="sBYjH0_UJTp_EUdpmLKk-81" value="" style="rounded=1;whiteSpace=wrap;html=1;fillColor=none;fontSize=10;dashed=1;" parent="1" vertex="1">
          <mxGeometry x="180" y="1415" width="425" height="310" as="geometry" />
        </mxCell>
        <mxCell id="sBYjH0_UJTp_EUdpmLKk-93" value="" style="rounded=1;whiteSpace=wrap;html=1;fillColor=none;fontSize=10;dashed=1;" parent="1" vertex="1">
          <mxGeometry x="-774.5" y="1415" width="320" height="310" as="geometry" />
        </mxCell>
        <mxCell id="sBYjH0_UJTp_EUdpmLKk-37" value="" style="ellipse;shape=cloud;whiteSpace=wrap;html=1;fillColor=none;" parent="1" vertex="1">
          <mxGeometry x="-355" y="530" width="260" height="170" as="geometry" />
        </mxCell>
        <mxCell id="sBYjH0_UJTp_EUdpmLKk-1" value="" style="rounded=0;whiteSpace=wrap;html=1;fillColor=none;fontSize=14;fontColor=#000000;strokeColor=#FFB570;strokeWidth=2;" parent="1" vertex="1">
          <mxGeometry x="-1070" y="240" width="1030" height="830" as="geometry" />
        </mxCell>
        <mxCell id="sBYjH0_UJTp_EUdpmLKk-26" value="Confirm Wi-Fi Information&amp;amp; Basic Verification" style="text;html=1;strokeColor=none;fillColor=none;align=center;verticalAlign=middle;whiteSpace=wrap;rounded=0;fontSize=14;" parent="1" vertex="1">
          <mxGeometry x="-716.45" y="1431.37" width="171.95" height="20" as="geometry" />
        </mxCell>
        <mxCell id="sBYjH0_UJTp_EUdpmLKk-27" value="&lt;font style=&quot;font-size: 20px&quot;&gt;Wi-Fi Common Module Repair Testing Workflow&lt;/font&gt;" style="text;html=1;strokeColor=none;fillColor=none;align=center;verticalAlign=middle;whiteSpace=wrap;rounded=0;fontSize=14;fontStyle=1" parent="1" vertex="1">
          <mxGeometry x="-147" y="1990" width="550" height="20" as="geometry" />
        </mxCell>
        <mxCell id="sBYjH0_UJTp_EUdpmLKk-28" value="AWS Cloud- CA" style="outlineConnect=0;fontColor=#232F3E;gradientColor=none;strokeColor=#232F3E;fillColor=#ffffff;dashed=0;verticalLabelPosition=bottom;verticalAlign=top;align=center;html=1;fontSize=12;fontStyle=0;aspect=fixed;shape=mxgraph.aws4.resourceIcon;resIcon=mxgraph.aws4.aws_cloud;" parent="1" vertex="1">
          <mxGeometry x="-265" y="571" width="60" height="60" as="geometry" />
        </mxCell>
        <mxCell id="sBYjH0_UJTp_EUdpmLKk-29" value="AWS Cloud- Production A &lt;br&gt;(e.g. Smart Home)" style="outlineConnect=0;fontColor=#232F3E;gradientColor=none;strokeColor=#232F3E;fillColor=#ffffff;dashed=0;verticalLabelPosition=bottom;verticalAlign=top;align=center;html=1;fontSize=12;fontStyle=0;aspect=fixed;shape=mxgraph.aws4.resourceIcon;resIcon=mxgraph.aws4.aws_cloud;" parent="1" vertex="1">
          <mxGeometry x="-960" y="284" width="60" height="60" as="geometry" />
        </mxCell>
        <mxCell id="sBYjH0_UJTp_EUdpmLKk-30" value="AWS Cloud- Production B&lt;br&gt;(e.g. Commerical Building)" style="outlineConnect=0;fontColor=#232F3E;gradientColor=none;strokeColor=#232F3E;fillColor=#ffffff;dashed=0;verticalLabelPosition=bottom;verticalAlign=top;align=center;html=1;fontSize=12;fontStyle=0;aspect=fixed;shape=mxgraph.aws4.resourceIcon;resIcon=mxgraph.aws4.aws_cloud;" parent="1" vertex="1">
          <mxGeometry x="-960" y="470" width="60" height="60" as="geometry" />
        </mxCell>
        <mxCell id="sBYjH0_UJTp_EUdpmLKk-31" value="AWS Cloud- Production C&lt;br&gt;(e.g. Elderly Care)" style="outlineConnect=0;fontColor=#232F3E;gradientColor=none;strokeColor=#232F3E;fillColor=#ffffff;dashed=0;verticalLabelPosition=bottom;verticalAlign=top;align=center;html=1;fontSize=12;fontStyle=0;aspect=fixed;shape=mxgraph.aws4.resourceIcon;resIcon=mxgraph.aws4.aws_cloud;" parent="1" vertex="1">
          <mxGeometry x="-956.5" y="654" width="60" height="60" as="geometry" />
        </mxCell>
        <mxCell id="sBYjH0_UJTp_EUdpmLKk-32" value="AWS Cloud- Production D&lt;br&gt;(e.g. Connect to 3rd party Cloud)" style="outlineConnect=0;fontColor=#232F3E;gradientColor=none;strokeColor=#232F3E;fillColor=#ffffff;dashed=0;verticalLabelPosition=bottom;verticalAlign=top;align=center;html=1;fontSize=12;fontStyle=0;aspect=fixed;shape=mxgraph.aws4.resourceIcon;resIcon=mxgraph.aws4.aws_cloud;" parent="1" vertex="1">
          <mxGeometry x="-952" y="847" width="60" height="60" as="geometry" />
        </mxCell>
        <mxCell id="sBYjH0_UJTp_EUdpmLKk-36" value="" style="ellipse;shape=cloud;whiteSpace=wrap;html=1;fillColor=none;" parent="1" vertex="1">
          <mxGeometry x="-1055" y="260" width="260" height="170" as="geometry" />
        </mxCell>
        <mxCell id="sBYjH0_UJTp_EUdpmLKk-39" value="" style="ellipse;shape=cloud;whiteSpace=wrap;html=1;fillColor=none;" parent="1" vertex="1">
          <mxGeometry x="-1054" y="814" width="260" height="170" as="geometry" />
        </mxCell>
        <mxCell id="sBYjH0_UJTp_EUdpmLKk-40" value="" style="ellipse;shape=cloud;whiteSpace=wrap;html=1;fillColor=none;" parent="1" vertex="1">
          <mxGeometry x="-1051.5" y="624" width="260" height="170" as="geometry" />
        </mxCell>
        <mxCell id="sBYjH0_UJTp_EUdpmLKk-41" value="" style="ellipse;shape=cloud;whiteSpace=wrap;html=1;fillColor=none;" parent="1" vertex="1">
          <mxGeometry x="-1055" y="440" width="260" height="170" as="geometry" />
        </mxCell>
        <mxCell id="sBYjH0_UJTp_EUdpmLKk-42" value="&lt;font style=&quot;font-size: 20px&quot;&gt;&lt;b&gt;... ...&lt;/b&gt;&lt;/font&gt;" style="text;html=1;strokeColor=none;fillColor=none;align=center;verticalAlign=middle;whiteSpace=wrap;rounded=0;strokeWidth=2;" parent="1" vertex="1">
          <mxGeometry x="-966.5" y="1024" width="85" height="20" as="geometry" />
        </mxCell>
        <mxCell id="sBYjH0_UJTp_EUdpmLKk-50" value="&lt;span style=&quot;font-size: 15px&quot;&gt;Device Group A Certificates Transfer&lt;/span&gt;" style="endArrow=classic;html=1;entryX=0.96;entryY=0.7;entryDx=0;entryDy=0;entryPerimeter=0;exitX=0.25;exitY=0.25;exitDx=0;exitDy=0;exitPerimeter=0;" parent="1" edge="1">
          <mxGeometry x="0.0968" y="4" relative="1" as="geometry">
            <mxPoint x="-291" y="572.5" as="sourcePoint" />
            <mxPoint x="-806.3999999999999" y="379.0000000000001" as="targetPoint" />
            <mxPoint as="offset" />
          </mxGeometry>
        </mxCell>
        <mxCell id="sBYjH0_UJTp_EUdpmLKk-54" value="&lt;span style=&quot;font-size: 15px&quot;&gt;Device Group B Certificates Transfer&lt;/span&gt;" style="endArrow=classic;html=1;entryX=0.96;entryY=0.7;entryDx=0;entryDy=0;entryPerimeter=0;exitX=0.07;exitY=0.4;exitDx=0;exitDy=0;exitPerimeter=0;" parent="1" source="sBYjH0_UJTp_EUdpmLKk-37" target="sBYjH0_UJTp_EUdpmLKk-41" edge="1">
          <mxGeometry x="0.016" y="2" relative="1" as="geometry">
            <mxPoint x="-289.6" y="780.75" as="sourcePoint" />
            <mxPoint x="-805" y="587.2499999999998" as="targetPoint" />
            <mxPoint as="offset" />
          </mxGeometry>
        </mxCell>
        <mxCell id="sBYjH0_UJTp_EUdpmLKk-56" value="&lt;span style=&quot;font-size: 15px&quot;&gt;Device Group C Certificates Transfer&lt;/span&gt;" style="endArrow=classic;html=1;entryX=0.96;entryY=0.7;entryDx=0;entryDy=0;entryPerimeter=0;exitX=0.16;exitY=0.55;exitDx=0;exitDy=0;exitPerimeter=0;" parent="1" source="sBYjH0_UJTp_EUdpmLKk-37" edge="1">
          <mxGeometry x="0.0417" y="-3" relative="1" as="geometry">
            <mxPoint x="-299.6" y="873.5" as="sourcePoint" />
            <mxPoint x="-815" y="679.9999999999998" as="targetPoint" />
            <mxPoint as="offset" />
          </mxGeometry>
        </mxCell>
        <mxCell id="sBYjH0_UJTp_EUdpmLKk-58" value="&lt;span style=&quot;font-size: 15px&quot;&gt;Device Group D Certificates Transfer&lt;/span&gt;" style="endArrow=classic;html=1;entryX=0.88;entryY=0.25;entryDx=0;entryDy=0;entryPerimeter=0;exitX=0.13;exitY=0.77;exitDx=0;exitDy=0;exitPerimeter=0;" parent="1" source="sBYjH0_UJTp_EUdpmLKk-37" target="sBYjH0_UJTp_EUdpmLKk-39" edge="1">
          <mxGeometry x="0.0079" y="1" relative="1" as="geometry">
            <mxPoint x="-219.60000000000002" y="1007.5" as="sourcePoint" />
            <mxPoint x="-735" y="813.9999999999998" as="targetPoint" />
            <mxPoint as="offset" />
          </mxGeometry>
        </mxCell>
        <mxCell id="sBYjH0_UJTp_EUdpmLKk-60" value="" style="shape=image;html=1;verticalAlign=top;verticalLabelPosition=bottom;labelBackgroundColor=#ffffff;imageAspect=0;aspect=fixed;image=https://cdn2.iconfinder.com/data/icons/blocked-out-2/29/office-128.png;strokeWidth=2;fillColor=none;" parent="1" vertex="1">
          <mxGeometry x="1090" y="1280" width="60" height="60" as="geometry" />
        </mxCell>
        <mxCell id="sBYjH0_UJTp_EUdpmLKk-72" value="&lt;font style=&quot;font-size: 15px&quot;&gt;SZBM&lt;/font&gt;" style="text;html=1;strokeColor=none;fillColor=none;align=center;verticalAlign=middle;whiteSpace=wrap;rounded=0;fontSize=14;fontStyle=1" parent="1" vertex="1">
          <mxGeometry x="1085" y="1350" width="70" height="20" as="geometry" />
        </mxCell>
        <mxCell id="sBYjH0_UJTp_EUdpmLKk-77" value="" style="shape=image;html=1;verticalAlign=top;verticalLabelPosition=bottom;labelBackgroundColor=#ffffff;imageAspect=0;aspect=fixed;image=https://cdn3.iconfinder.com/data/icons/basic-user-interface-5/64/setting_preference_option_maintenance_main_gear-128.png;strokeWidth=2;fillColor=none;" parent="1" vertex="1">
          <mxGeometry x="-160" y="960" width="80" height="80" as="geometry" />
        </mxCell>
        <mxCell id="sBYjH0_UJTp_EUdpmLKk-78" value="&lt;font style=&quot;font-size: 15px&quot;&gt;Cloud OperationTeam&lt;/font&gt;" style="text;html=1;strokeColor=none;fillColor=none;align=center;verticalAlign=middle;whiteSpace=wrap;rounded=0;fontSize=14;fontStyle=1" parent="1" vertex="1">
          <mxGeometry x="-210" y="1040" width="170" height="20" as="geometry" />
        </mxCell>
        <mxCell id="sBYjH0_UJTp_EUdpmLKk-82" value="3" style="ellipse;whiteSpace=wrap;html=1;aspect=fixed;strokeColor=#FFB570;fontSize=14;" parent="1" vertex="1">
          <mxGeometry x="224.93" y="1439.38" width="30" height="30" as="geometry" />
        </mxCell>
        <mxCell id="sBYjH0_UJTp_EUdpmLKk-90" value="Common Wi-Fi Module" style="text;html=1;strokeColor=none;fillColor=none;align=center;verticalAlign=middle;whiteSpace=wrap;rounded=0;fontSize=10;" parent="1" vertex="1">
          <mxGeometry x="326" y="1577.75" width="100" height="20" as="geometry" />
        </mxCell>
        <mxCell id="sBYjH0_UJTp_EUdpmLKk-91" value="Wi-Fi Module Initialized Operation With One Golden Device Sample (PCBA)" style="text;html=1;strokeColor=none;fillColor=none;align=center;verticalAlign=middle;whiteSpace=wrap;rounded=0;fontSize=14;" parent="1" vertex="1">
          <mxGeometry x="256.93" y="1441.07" width="181.5" height="20" as="geometry" />
        </mxCell>
        <mxCell id="sBYjH0_UJTp_EUdpmLKk-94" value="1" style="ellipse;whiteSpace=wrap;html=1;aspect=fixed;strokeColor=#FFB570;fontSize=14;" parent="1" vertex="1">
          <mxGeometry x="-756.45" y="1426.37" width="30" height="30" as="geometry" />
        </mxCell>
        <mxCell id="sBYjH0_UJTp_EUdpmLKk-100" value="" style="verticalLabelPosition=bottom;html=1;verticalAlign=top;align=center;strokeColor=none;fillColor=#00BEF2;shape=mxgraph.azure.computer;pointerEvents=1;" parent="1" vertex="1">
          <mxGeometry x="-540.45" y="1487.77" width="50" height="45" as="geometry" />
        </mxCell>
        <mxCell id="sBYjH0_UJTp_EUdpmLKk-107" value="" style="rounded=0;whiteSpace=wrap;html=1;strokeWidth=1;fillColor=none;" parent="1" vertex="1">
          <mxGeometry x="356.43000000000006" y="1604.46" width="40" height="22" as="geometry" />
        </mxCell>
        <mxCell id="sBYjH0_UJTp_EUdpmLKk-112" style="edgeStyle=none;rounded=0;orthogonalLoop=1;jettySize=auto;html=1;exitX=1;exitY=0;exitDx=0;exitDy=0;startArrow=classic;startFill=1;" parent="1" source="sBYjH0_UJTp_EUdpmLKk-107" target="sBYjH0_UJTp_EUdpmLKk-107" edge="1">
          <mxGeometry relative="1" as="geometry" />
        </mxCell>
        <mxCell id="sBYjH0_UJTp_EUdpmLKk-113" style="edgeStyle=none;rounded=0;orthogonalLoop=1;jettySize=auto;html=1;exitX=1;exitY=1;exitDx=0;exitDy=0;startArrow=classic;startFill=1;" parent="1" source="sBYjH0_UJTp_EUdpmLKk-107" target="sBYjH0_UJTp_EUdpmLKk-107" edge="1">
          <mxGeometry relative="1" as="geometry" />
        </mxCell>
        <mxCell id="sBYjH0_UJTp_EUdpmLKk-114" value="" style="ellipse;whiteSpace=wrap;html=1;aspect=fixed;strokeWidth=1;fillColor=none;" parent="1" vertex="1">
          <mxGeometry x="372.43000000000006" y="1611.46" width="8" height="8" as="geometry" />
        </mxCell>
        <mxCell id="sBYjH0_UJTp_EUdpmLKk-117" value="" style="shape=image;html=1;verticalAlign=top;verticalLabelPosition=bottom;labelBackgroundColor=#ffffff;imageAspect=0;aspect=fixed;image=https://cdn3.iconfinder.com/data/icons/network-and-communications-10/32/network_hardware_processor_microprocessor-128.png;strokeWidth=1;fillColor=none;" parent="1" vertex="1">
          <mxGeometry x="436.43000000000006" y="1590.25" width="46" height="46" as="geometry" />
        </mxCell>
        <mxCell id="sBYjH0_UJTp_EUdpmLKk-121" value="" style="verticalLabelPosition=bottom;shadow=0;dashed=0;align=center;html=1;verticalAlign=top;shape=mxgraph.electrical.transmission.cable_group;pointerEvents=1;strokeWidth=1;fillColor=none;" parent="1" vertex="1">
          <mxGeometry x="396.43000000000006" y="1608.5" width="42" height="14.5" as="geometry" />
        </mxCell>
        <mxCell id="sBYjH0_UJTp_EUdpmLKk-122" value="Device MCU" style="text;html=1;strokeColor=none;fillColor=none;align=center;verticalAlign=middle;whiteSpace=wrap;rounded=0;fontSize=10;" parent="1" vertex="1">
          <mxGeometry x="410.43000000000006" y="1570.25" width="100" height="20" as="geometry" />
        </mxCell>
        <mxCell id="sBYjH0_UJTp_EUdpmLKk-123" value="UART Cable" style="text;html=1;strokeColor=none;fillColor=none;align=center;verticalAlign=middle;whiteSpace=wrap;rounded=0;fontSize=7;" parent="1" vertex="1">
          <mxGeometry x="389.93000000000006" y="1619" width="57" height="20" as="geometry" />
        </mxCell>
        <mxCell id="sBYjH0_UJTp_EUdpmLKk-124" value="" style="rounded=1;whiteSpace=wrap;html=1;strokeWidth=1;fillColor=none;fontSize=7;fontColor=#1820F5;strokeColor=#1820F5;" parent="1" vertex="1">
          <mxGeometry x="337" y="1563" width="159" height="91.75" as="geometry" />
        </mxCell>
        <mxCell id="sBYjH0_UJTp_EUdpmLKk-127" value="IoT Device" style="text;html=1;strokeColor=none;fillColor=none;align=center;verticalAlign=middle;whiteSpace=wrap;rounded=0;fontColor=#3333FF;" parent="1" vertex="1">
          <mxGeometry x="496" y="1625.25" width="80" height="20" as="geometry" />
        </mxCell>
        <mxCell id="sBYjH0_UJTp_EUdpmLKk-128" value="" style="shape=image;html=1;verticalAlign=top;verticalLabelPosition=bottom;labelBackgroundColor=#ffffff;imageAspect=0;aspect=fixed;image=https://cdn2.iconfinder.com/data/icons/bathroom-line-1/64/Bidets-128.png;strokeColor=#1820F5;strokeWidth=1;fillColor=none;fontSize=7;fontColor=#1820F5;" parent="1" vertex="1">
          <mxGeometry x="501" y="1594.88" width="32.5" height="32.5" as="geometry" />
        </mxCell>
        <mxCell id="sBYjH0_UJTp_EUdpmLKk-129" value="" style="shape=image;html=1;verticalAlign=top;verticalLabelPosition=bottom;labelBackgroundColor=#ffffff;imageAspect=0;aspect=fixed;image=https://cdn2.iconfinder.com/data/icons/bathroom-line-1/64/faucet-128.png;strokeColor=#1820F5;strokeWidth=1;fillColor=none;fontSize=7;fontColor=#1820F5;" parent="1" vertex="1">
          <mxGeometry x="526.1300000000001" y="1572.5" width="29.75" height="29.75" as="geometry" />
        </mxCell>
        <mxCell id="sBYjH0_UJTp_EUdpmLKk-130" value="" style="shape=image;html=1;verticalAlign=top;verticalLabelPosition=bottom;labelBackgroundColor=#ffffff;imageAspect=0;aspect=fixed;image=https://cdn2.iconfinder.com/data/icons/bathroom-line-1/64/Tub-128.png;strokeColor=#1820F5;strokeWidth=1;fillColor=none;fontSize=7;fontColor=#1820F5;" parent="1" vertex="1">
          <mxGeometry x="539" y="1593" width="32" height="32" as="geometry" />
        </mxCell>
        <mxCell id="sBYjH0_UJTp_EUdpmLKk-135" value="" style="html=1;verticalLabelPosition=bottom;align=center;labelBackgroundColor=#ffffff;verticalAlign=top;strokeWidth=2;strokeColor=#0080F0;shadow=0;dashed=0;shape=mxgraph.ios7.icons.bluetooth;pointerEvents=1;fillColor=none;fontSize=7;fontColor=#1820F5;rotation=-30;" parent="1" vertex="1">
          <mxGeometry x="431.93000000000006" y="1505" width="15" height="28.799999999999997" as="geometry" />
        </mxCell>
        <mxCell id="sBYjH0_UJTp_EUdpmLKk-136" value="" style="aspect=fixed;html=1;points=[];align=center;image;fontSize=12;image=img/lib/mscae/App_Service_Mobile_App.svg;strokeColor=#1820F5;strokeWidth=1;fillColor=none;" parent="1" vertex="1">
          <mxGeometry x="501.94000000000005" y="1463" width="28.56" height="42" as="geometry" />
        </mxCell>
        <mxCell id="sBYjH0_UJTp_EUdpmLKk-146" value="" style="endArrow=classic;html=1;dashed=1;edgeStyle=orthogonalEdgeStyle;startArrow=classic;entryX=0.875;entryY=0.5;entryDx=0;entryDy=0;entryPerimeter=0;" parent="1" source="sBYjH0_UJTp_EUdpmLKk-136" target="sBYjH0_UJTp_EUdpmLKk-37" edge="1">
          <mxGeometry width="50" height="50" relative="1" as="geometry">
            <mxPoint x="489.8199999999997" y="1458.0049999999999" as="sourcePoint" />
            <mxPoint x="339.02000000000044" y="649.01" as="targetPoint" />
            <Array as="points">
              <mxPoint x="516" y="615" />
            </Array>
          </mxGeometry>
        </mxCell>
        <mxCell id="sBYjH0_UJTp_EUdpmLKk-147" value="Initialize Device Certificate Transfer From CA Cloud To Production Cloud&amp;nbsp;" style="edgeLabel;html=1;align=center;verticalAlign=middle;resizable=0;points=[];fontSize=15;" parent="sBYjH0_UJTp_EUdpmLKk-146" vertex="1" connectable="0">
          <mxGeometry x="0.3078" y="-1" relative="1" as="geometry">
            <mxPoint x="-158.88" y="1" as="offset" />
          </mxGeometry>
        </mxCell>
        <mxCell id="sBYjH0_UJTp_EUdpmLKk-149" value="" style="endArrow=classic;html=1;dashed=1;edgeStyle=orthogonalEdgeStyle;startArrow=classic;entryX=0.875;entryY=0.5;entryDx=0;entryDy=0;entryPerimeter=0;" parent="1" source="sBYjH0_UJTp_EUdpmLKk-175" target="sBYjH0_UJTp_EUdpmLKk-36" edge="1">
          <mxGeometry width="50" height="50" relative="1" as="geometry">
            <mxPoint x="720" y="980" as="sourcePoint" />
            <mxPoint x="-90" y="440" as="targetPoint" />
            <Array as="points">
              <mxPoint x="1011" y="345" />
            </Array>
          </mxGeometry>
        </mxCell>
        <mxCell id="sBYjH0_UJTp_EUdpmLKk-150" value="1st Time Operation In Production Cloud&amp;nbsp;" style="edgeLabel;html=1;align=center;verticalAlign=middle;resizable=0;points=[];fontSize=15;" parent="sBYjH0_UJTp_EUdpmLKk-149" vertex="1" connectable="0">
          <mxGeometry x="0.3078" y="-1" relative="1" as="geometry">
            <mxPoint x="208.55" as="offset" />
          </mxGeometry>
        </mxCell>
        <mxCell id="sBYjH0_UJTp_EUdpmLKk-152" value="" style="shape=image;html=1;verticalAlign=top;verticalLabelPosition=bottom;labelBackgroundColor=#ffffff;imageAspect=0;aspect=fixed;image=https://cdn4.iconfinder.com/data/icons/construction-hand-drawn/38/construction_hand_drawn_icon__worker-128.png;strokeColor=#1820F5;strokeWidth=1;fillColor=none;fontSize=20;fontColor=#1820F5;" parent="1" vertex="1">
          <mxGeometry x="546" y="1665.05" width="43.9" height="43.9" as="geometry" />
        </mxCell>
        <mxCell id="sBYjH0_UJTp_EUdpmLKk-153" value="" style="shape=image;html=1;verticalAlign=top;verticalLabelPosition=bottom;labelBackgroundColor=#ffffff;imageAspect=0;aspect=fixed;image=https://cdn4.iconfinder.com/data/icons/construction-hand-drawn/38/construction_hand_drawn_icon__worker-128.png;strokeColor=#1820F5;strokeWidth=1;fillColor=none;fontSize=20;fontColor=#1820F5;" parent="1" vertex="1">
          <mxGeometry x="-519.45" y="1657.8500000000001" width="43.9" height="43.9" as="geometry" />
        </mxCell>
        <mxCell id="sBYjH0_UJTp_EUdpmLKk-155" value="" style="rounded=1;whiteSpace=wrap;html=1;fillColor=none;fontSize=10;dashed=1;" parent="1" vertex="1">
          <mxGeometry x="760" y="1415.38" width="320" height="310" as="geometry" />
        </mxCell>
        <mxCell id="sBYjH0_UJTp_EUdpmLKk-156" value="4" style="ellipse;whiteSpace=wrap;html=1;aspect=fixed;strokeColor=#FFB570;fontSize=14;" parent="1" vertex="1">
          <mxGeometry x="783" y="1439.38" width="30" height="30" as="geometry" />
        </mxCell>
        <mxCell id="sBYjH0_UJTp_EUdpmLKk-157" value="Common Wi-Fi Module" style="text;html=1;strokeColor=none;fillColor=none;align=center;verticalAlign=middle;whiteSpace=wrap;rounded=0;fontSize=10;" parent="1" vertex="1">
          <mxGeometry x="801" y="1579.13" width="100" height="20" as="geometry" />
        </mxCell>
        <mxCell id="sBYjH0_UJTp_EUdpmLKk-158" value="Wi-Fi Module 1st Time Operation Validation With The Golden Device Sample(PCBA)" style="text;html=1;strokeColor=none;fillColor=none;align=center;verticalAlign=middle;whiteSpace=wrap;rounded=0;fontSize=14;" parent="1" vertex="1">
          <mxGeometry x="812" y="1439.38" width="150" height="20" as="geometry" />
        </mxCell>
        <mxCell id="sBYjH0_UJTp_EUdpmLKk-159" value="" style="rounded=0;whiteSpace=wrap;html=1;strokeWidth=1;fillColor=none;" parent="1" vertex="1">
          <mxGeometry x="831.4300000000001" y="1605.8400000000001" width="40" height="22" as="geometry" />
        </mxCell>
        <mxCell id="sBYjH0_UJTp_EUdpmLKk-160" style="edgeStyle=none;rounded=0;orthogonalLoop=1;jettySize=auto;html=1;exitX=1;exitY=0;exitDx=0;exitDy=0;startArrow=classic;startFill=1;" parent="1" source="sBYjH0_UJTp_EUdpmLKk-159" target="sBYjH0_UJTp_EUdpmLKk-159" edge="1">
          <mxGeometry relative="1" as="geometry" />
        </mxCell>
        <mxCell id="sBYjH0_UJTp_EUdpmLKk-161" style="edgeStyle=none;rounded=0;orthogonalLoop=1;jettySize=auto;html=1;exitX=1;exitY=1;exitDx=0;exitDy=0;startArrow=classic;startFill=1;" parent="1" source="sBYjH0_UJTp_EUdpmLKk-159" target="sBYjH0_UJTp_EUdpmLKk-159" edge="1">
          <mxGeometry relative="1" as="geometry" />
        </mxCell>
        <mxCell id="sBYjH0_UJTp_EUdpmLKk-162" value="" style="ellipse;whiteSpace=wrap;html=1;aspect=fixed;strokeWidth=1;fillColor=none;" parent="1" vertex="1">
          <mxGeometry x="847.4300000000001" y="1612.8400000000001" width="8" height="8" as="geometry" />
        </mxCell>
        <mxCell id="sBYjH0_UJTp_EUdpmLKk-163" value="" style="shape=image;html=1;verticalAlign=top;verticalLabelPosition=bottom;labelBackgroundColor=#ffffff;imageAspect=0;aspect=fixed;image=https://cdn3.iconfinder.com/data/icons/network-and-communications-10/32/network_hardware_processor_microprocessor-128.png;strokeWidth=1;fillColor=none;" parent="1" vertex="1">
          <mxGeometry x="911.4300000000001" y="1591.63" width="46" height="46" as="geometry" />
        </mxCell>
        <mxCell id="sBYjH0_UJTp_EUdpmLKk-164" value="" style="verticalLabelPosition=bottom;shadow=0;dashed=0;align=center;html=1;verticalAlign=top;shape=mxgraph.electrical.transmission.cable_group;pointerEvents=1;strokeWidth=1;fillColor=none;" parent="1" vertex="1">
          <mxGeometry x="871.4300000000001" y="1609.88" width="42" height="14.5" as="geometry" />
        </mxCell>
        <mxCell id="sBYjH0_UJTp_EUdpmLKk-165" value="Device MCU" style="text;html=1;strokeColor=none;fillColor=none;align=center;verticalAlign=middle;whiteSpace=wrap;rounded=0;fontSize=10;" parent="1" vertex="1">
          <mxGeometry x="885.4300000000001" y="1571.63" width="100" height="20" as="geometry" />
        </mxCell>
        <mxCell id="sBYjH0_UJTp_EUdpmLKk-166" value="UART Cable" style="text;html=1;strokeColor=none;fillColor=none;align=center;verticalAlign=middle;whiteSpace=wrap;rounded=0;fontSize=7;" parent="1" vertex="1">
          <mxGeometry x="864.9300000000001" y="1620.38" width="57" height="20" as="geometry" />
        </mxCell>
        <mxCell id="sBYjH0_UJTp_EUdpmLKk-167" value="" style="rounded=1;whiteSpace=wrap;html=1;strokeWidth=1;fillColor=none;fontSize=7;fontColor=#1820F5;strokeColor=#1820F5;" parent="1" vertex="1">
          <mxGeometry x="812" y="1564.38" width="159" height="91.75" as="geometry" />
        </mxCell>
        <mxCell id="sBYjH0_UJTp_EUdpmLKk-168" value="IoT Device" style="text;html=1;strokeColor=none;fillColor=none;align=center;verticalAlign=middle;whiteSpace=wrap;rounded=0;fontColor=#3333FF;" parent="1" vertex="1">
          <mxGeometry x="971" y="1626.63" width="80" height="20" as="geometry" />
        </mxCell>
        <mxCell id="sBYjH0_UJTp_EUdpmLKk-169" value="" style="shape=image;html=1;verticalAlign=top;verticalLabelPosition=bottom;labelBackgroundColor=#ffffff;imageAspect=0;aspect=fixed;image=https://cdn2.iconfinder.com/data/icons/bathroom-line-1/64/Bidets-128.png;strokeColor=#1820F5;strokeWidth=1;fillColor=none;fontSize=7;fontColor=#1820F5;" parent="1" vertex="1">
          <mxGeometry x="976" y="1596.2600000000002" width="32.5" height="32.5" as="geometry" />
        </mxCell>
        <mxCell id="sBYjH0_UJTp_EUdpmLKk-170" value="" style="shape=image;html=1;verticalAlign=top;verticalLabelPosition=bottom;labelBackgroundColor=#ffffff;imageAspect=0;aspect=fixed;image=https://cdn2.iconfinder.com/data/icons/bathroom-line-1/64/faucet-128.png;strokeColor=#1820F5;strokeWidth=1;fillColor=none;fontSize=7;fontColor=#1820F5;" parent="1" vertex="1">
          <mxGeometry x="1001.1300000000001" y="1573.88" width="29.75" height="29.75" as="geometry" />
        </mxCell>
        <mxCell id="sBYjH0_UJTp_EUdpmLKk-171" value="" style="shape=image;html=1;verticalAlign=top;verticalLabelPosition=bottom;labelBackgroundColor=#ffffff;imageAspect=0;aspect=fixed;image=https://cdn2.iconfinder.com/data/icons/bathroom-line-1/64/Tub-128.png;strokeColor=#1820F5;strokeWidth=1;fillColor=none;fontSize=7;fontColor=#1820F5;" parent="1" vertex="1">
          <mxGeometry x="1014" y="1594.38" width="32" height="32" as="geometry" />
        </mxCell>
        <mxCell id="sBYjH0_UJTp_EUdpmLKk-172" value="" style="html=1;verticalLabelPosition=bottom;align=center;labelBackgroundColor=#ffffff;verticalAlign=top;strokeWidth=2;strokeColor=#0080F0;shadow=0;dashed=0;shape=mxgraph.ios7.icons.wifi;pointerEvents=1;fillColor=none;fontSize=7;fontColor=#1820F5;rotation=30;" parent="1" vertex="1">
          <mxGeometry x="910" y="1514.38" width="29.7" height="21" as="geometry" />
        </mxCell>
        <mxCell id="sBYjH0_UJTp_EUdpmLKk-173" value="" style="html=1;verticalLabelPosition=bottom;align=center;labelBackgroundColor=#ffffff;verticalAlign=top;strokeWidth=2;strokeColor=#0080F0;shadow=0;dashed=0;shape=mxgraph.ios7.icons.bluetooth;pointerEvents=1;fillColor=none;fontSize=7;fontColor=#1820F5;rotation=20;" parent="1" vertex="1">
          <mxGeometry x="911.4300000000001" y="1665.0500000000002" width="15" height="28.799999999999997" as="geometry" />
        </mxCell>
        <mxCell id="sBYjH0_UJTp_EUdpmLKk-174" value="" style="aspect=fixed;html=1;points=[];align=center;image;fontSize=12;image=img/lib/mscae/App_Service_Mobile_App.svg;strokeColor=#1820F5;strokeWidth=1;fillColor=none;" parent="1" vertex="1">
          <mxGeometry x="962" y="1666" width="28.56" height="42" as="geometry" />
        </mxCell>
        <mxCell id="sBYjH0_UJTp_EUdpmLKk-175" value="" style="image;html=1;image=img/lib/clip_art/networking/Wireless_Router_N_128x128.png;strokeColor=#1820F5;strokeWidth=1;fillColor=none;fontSize=7;fontColor=#1820F5;" parent="1" vertex="1">
          <mxGeometry x="972" y="1448.38" width="77" height="55" as="geometry" />
        </mxCell>
        <mxCell id="sBYjH0_UJTp_EUdpmLKk-176" value="" style="shape=image;html=1;verticalAlign=top;verticalLabelPosition=bottom;labelBackgroundColor=#ffffff;imageAspect=0;aspect=fixed;image=https://cdn4.iconfinder.com/data/icons/construction-hand-drawn/38/construction_hand_drawn_icon__worker-128.png;strokeColor=#1820F5;strokeWidth=1;fillColor=none;fontSize=20;fontColor=#1820F5;" parent="1" vertex="1">
          <mxGeometry x="1021" y="1666.43" width="43.9" height="43.9" as="geometry" />
        </mxCell>
        <mxCell id="sBYjH0_UJTp_EUdpmLKk-177" value="Customied Manufacture APP" style="text;html=1;strokeColor=none;fillColor=none;align=center;verticalAlign=middle;whiteSpace=wrap;rounded=0;fontColor=#3333FF;" parent="1" vertex="1">
          <mxGeometry x="472.78" y="1513.8" width="97.75" height="20" as="geometry" />
        </mxCell>
        <mxCell id="vn5zpIuFy9Mp_Aaqx6cl-4" value="User APP" style="text;html=1;strokeColor=none;fillColor=none;align=center;verticalAlign=middle;whiteSpace=wrap;rounded=0;fontColor=#3333FF;" parent="1" vertex="1">
          <mxGeometry x="929.13" y="1707" width="97.75" height="20" as="geometry" />
        </mxCell>
        <mxCell id="vn5zpIuFy9Mp_Aaqx6cl-5" value="" style="html=1;shadow=0;dashed=0;align=center;verticalAlign=middle;shape=mxgraph.arrows2.arrow;dy=0.6;dx=40;notch=0;strokeColor=#000000;fillColor=none;fontSize=10;fontColor=#000000;" parent="1" vertex="1">
          <mxGeometry x="655" y="1561.63" width="60" height="30" as="geometry" />
        </mxCell>
        <mxCell id="vNBhTXLD5B69hJ4wIaK6-2" value="" style="shape=image;html=1;verticalAlign=top;verticalLabelPosition=bottom;labelBackgroundColor=#ffffff;imageAspect=0;aspect=fixed;image=https://cdn1.iconfinder.com/data/icons/ecommerce-and-business-icon-set/128/bar-code.png" parent="1" vertex="1">
          <mxGeometry x="-661.45" y="1477.77" width="90" height="90" as="geometry" />
        </mxCell>
        <mxCell id="vNBhTXLD5B69hJ4wIaK6-8" value="&lt;span&gt;Paste New Label On New Wi-Fi Module: Product SKU&lt;/span&gt;" style="text;html=1;strokeColor=none;fillColor=none;align=left;verticalAlign=middle;whiteSpace=wrap;rounded=0;fontSize=14;" parent="1" vertex="1">
          <mxGeometry x="195.7" y="1659.8200000000002" width="184.3" height="50" as="geometry" />
        </mxCell>
        <mxCell id="vNBhTXLD5B69hJ4wIaK6-9" value="" style="shape=image;html=1;verticalAlign=top;verticalLabelPosition=bottom;labelBackgroundColor=#ffffff;imageAspect=0;aspect=fixed;image=https://cdn0.iconfinder.com/data/icons/shopping_icons_set2/128/9.png" parent="1" vertex="1">
          <mxGeometry x="376" y="1662" width="50" height="50" as="geometry" />
        </mxCell>
        <mxCell id="vNBhTXLD5B69hJ4wIaK6-13" value="" style="curved=1;endArrow=none;html=1;endFill=0;entryX=0;entryY=0.5;entryDx=0;entryDy=0;entryPerimeter=0;strokeWidth=2;" parent="1" edge="1">
          <mxGeometry width="50" height="50" relative="1" as="geometry">
            <mxPoint x="-580.45" y="1485.77" as="sourcePoint" />
            <mxPoint x="-541.45" y="1510.27" as="targetPoint" />
            <Array as="points">
              <mxPoint x="-530.45" y="1485.77" />
              <mxPoint x="-580.45" y="1447.77" />
              <mxPoint x="-555.45" y="1497.77" />
            </Array>
          </mxGeometry>
        </mxCell>
        <mxCell id="Nrrt7rBhLRxhSk5ey4vq-1" value="&lt;span&gt;Read Label On Broken Wi-Fi Module:&lt;br&gt;&lt;ul&gt;&lt;li&gt;&lt;span&gt;Wi-Fi Module PCBA Number&lt;/span&gt;&lt;/li&gt;&lt;li&gt;&lt;span&gt;S/N&lt;/span&gt;&lt;/li&gt;&lt;li&gt;&lt;span&gt;Product SKU&lt;/span&gt;&lt;/li&gt;&lt;/ul&gt;&lt;div&gt;Compare Pictures From On-Field&lt;/div&gt;&lt;/span&gt;" style="text;html=1;strokeColor=none;fillColor=none;align=left;verticalAlign=middle;whiteSpace=wrap;rounded=0;fontSize=14;" parent="1" vertex="1">
          <mxGeometry x="-716.45" y="1592.8300000000002" width="197" height="95.62" as="geometry" />
        </mxCell>
        <mxCell id="Nrrt7rBhLRxhSk5ey4vq-8" value="" style="html=1;shadow=0;dashed=0;align=center;verticalAlign=middle;shape=mxgraph.arrows2.arrow;dy=0.6;dx=40;notch=0;strokeColor=#000000;fillColor=none;fontSize=10;fontColor=#000000;" parent="1" vertex="1">
          <mxGeometry x="-417.49999999999994" y="1555" width="60" height="30" as="geometry" />
        </mxCell>
        <mxCell id="Nrrt7rBhLRxhSk5ey4vq-29" value="&quot;Broken&quot; Wi-Fi Module" style="text;html=1;strokeColor=none;fillColor=none;align=center;verticalAlign=middle;whiteSpace=wrap;rounded=0;fontSize=10;" parent="1" vertex="1">
          <mxGeometry x="-742.5" y="1502.6100000000001" width="100" height="20" as="geometry" />
        </mxCell>
        <mxCell id="Nrrt7rBhLRxhSk5ey4vq-30" value="" style="rounded=0;whiteSpace=wrap;html=1;strokeWidth=1;fillColor=none;" parent="1" vertex="1">
          <mxGeometry x="-712.0699999999999" y="1529.3200000000002" width="40" height="22" as="geometry" />
        </mxCell>
        <mxCell id="Nrrt7rBhLRxhSk5ey4vq-31" style="edgeStyle=none;rounded=0;orthogonalLoop=1;jettySize=auto;html=1;exitX=1;exitY=0;exitDx=0;exitDy=0;startArrow=classic;startFill=1;" parent="1" source="Nrrt7rBhLRxhSk5ey4vq-30" target="Nrrt7rBhLRxhSk5ey4vq-30" edge="1">
          <mxGeometry relative="1" as="geometry" />
        </mxCell>
        <mxCell id="Nrrt7rBhLRxhSk5ey4vq-32" style="edgeStyle=none;rounded=0;orthogonalLoop=1;jettySize=auto;html=1;exitX=1;exitY=1;exitDx=0;exitDy=0;startArrow=classic;startFill=1;" parent="1" source="Nrrt7rBhLRxhSk5ey4vq-30" target="Nrrt7rBhLRxhSk5ey4vq-30" edge="1">
          <mxGeometry relative="1" as="geometry" />
        </mxCell>
        <mxCell id="Nrrt7rBhLRxhSk5ey4vq-33" value="" style="ellipse;whiteSpace=wrap;html=1;aspect=fixed;strokeWidth=1;fillColor=none;" parent="1" vertex="1">
          <mxGeometry x="-696.0699999999999" y="1536.3200000000002" width="8" height="8" as="geometry" />
        </mxCell>
        <mxCell id="Nrrt7rBhLRxhSk5ey4vq-41" value="" style="rounded=1;whiteSpace=wrap;html=1;fillColor=none;fontSize=10;dashed=1;" parent="1" vertex="1">
          <mxGeometry x="-314.5" y="1418.87" width="320" height="310" as="geometry" />
        </mxCell>
        <mxCell id="Nrrt7rBhLRxhSk5ey4vq-42" value="2" style="ellipse;whiteSpace=wrap;html=1;aspect=fixed;strokeColor=#FFB570;fontSize=14;" parent="1" vertex="1">
          <mxGeometry x="-291.5" y="1438.87" width="30" height="30" as="geometry" />
        </mxCell>
        <mxCell id="Nrrt7rBhLRxhSk5ey4vq-43" value="&quot;Broken&quot; Wi-Fi Module" style="text;html=1;strokeColor=none;fillColor=none;align=center;verticalAlign=middle;whiteSpace=wrap;rounded=0;fontSize=10;" parent="1" vertex="1">
          <mxGeometry x="-273.5" y="1578.62" width="100" height="20" as="geometry" />
        </mxCell>
        <mxCell id="Nrrt7rBhLRxhSk5ey4vq-44" value="Verify &quot;Broken&quot; Wi-Fi Module Function With One Golden Device Sample (PCBA)" style="text;html=1;strokeColor=none;fillColor=none;align=center;verticalAlign=middle;whiteSpace=wrap;rounded=0;fontSize=14;" parent="1" vertex="1">
          <mxGeometry x="-262.5" y="1444.87" width="158" height="20" as="geometry" />
        </mxCell>
        <mxCell id="Nrrt7rBhLRxhSk5ey4vq-45" value="" style="rounded=0;whiteSpace=wrap;html=1;strokeWidth=1;fillColor=none;" parent="1" vertex="1">
          <mxGeometry x="-243.06999999999994" y="1605.33" width="40" height="22" as="geometry" />
        </mxCell>
        <mxCell id="Nrrt7rBhLRxhSk5ey4vq-46" style="edgeStyle=none;rounded=0;orthogonalLoop=1;jettySize=auto;html=1;exitX=1;exitY=0;exitDx=0;exitDy=0;startArrow=classic;startFill=1;" parent="1" source="Nrrt7rBhLRxhSk5ey4vq-45" target="Nrrt7rBhLRxhSk5ey4vq-45" edge="1">
          <mxGeometry relative="1" as="geometry" />
        </mxCell>
        <mxCell id="Nrrt7rBhLRxhSk5ey4vq-47" style="edgeStyle=none;rounded=0;orthogonalLoop=1;jettySize=auto;html=1;exitX=1;exitY=1;exitDx=0;exitDy=0;startArrow=classic;startFill=1;" parent="1" source="Nrrt7rBhLRxhSk5ey4vq-45" target="Nrrt7rBhLRxhSk5ey4vq-45" edge="1">
          <mxGeometry relative="1" as="geometry" />
        </mxCell>
        <mxCell id="Nrrt7rBhLRxhSk5ey4vq-48" value="" style="ellipse;whiteSpace=wrap;html=1;aspect=fixed;strokeWidth=1;fillColor=none;" parent="1" vertex="1">
          <mxGeometry x="-227.06999999999994" y="1612.33" width="8" height="8" as="geometry" />
        </mxCell>
        <mxCell id="Nrrt7rBhLRxhSk5ey4vq-49" value="" style="shape=image;html=1;verticalAlign=top;verticalLabelPosition=bottom;labelBackgroundColor=#ffffff;imageAspect=0;aspect=fixed;image=https://cdn3.iconfinder.com/data/icons/network-and-communications-10/32/network_hardware_processor_microprocessor-128.png;strokeWidth=1;fillColor=none;" parent="1" vertex="1">
          <mxGeometry x="-163.06999999999994" y="1591.12" width="46" height="46" as="geometry" />
        </mxCell>
        <mxCell id="Nrrt7rBhLRxhSk5ey4vq-50" value="" style="verticalLabelPosition=bottom;shadow=0;dashed=0;align=center;html=1;verticalAlign=top;shape=mxgraph.electrical.transmission.cable_group;pointerEvents=1;strokeWidth=1;fillColor=none;" parent="1" vertex="1">
          <mxGeometry x="-203.06999999999994" y="1609.37" width="42" height="14.5" as="geometry" />
        </mxCell>
        <mxCell id="Nrrt7rBhLRxhSk5ey4vq-51" value="Device MCU" style="text;html=1;strokeColor=none;fillColor=none;align=center;verticalAlign=middle;whiteSpace=wrap;rounded=0;fontSize=10;" parent="1" vertex="1">
          <mxGeometry x="-189.06999999999994" y="1571.12" width="100" height="20" as="geometry" />
        </mxCell>
        <mxCell id="Nrrt7rBhLRxhSk5ey4vq-52" value="UART Cable" style="text;html=1;strokeColor=none;fillColor=none;align=center;verticalAlign=middle;whiteSpace=wrap;rounded=0;fontSize=7;" parent="1" vertex="1">
          <mxGeometry x="-209.56999999999994" y="1619.87" width="57" height="20" as="geometry" />
        </mxCell>
        <mxCell id="Nrrt7rBhLRxhSk5ey4vq-54" value="IoT Device" style="text;html=1;strokeColor=none;fillColor=none;align=center;verticalAlign=middle;whiteSpace=wrap;rounded=0;fontColor=#3333FF;" parent="1" vertex="1">
          <mxGeometry x="-103.5" y="1626.12" width="80" height="20" as="geometry" />
        </mxCell>
        <mxCell id="Nrrt7rBhLRxhSk5ey4vq-55" value="" style="shape=image;html=1;verticalAlign=top;verticalLabelPosition=bottom;labelBackgroundColor=#ffffff;imageAspect=0;aspect=fixed;image=https://cdn2.iconfinder.com/data/icons/bathroom-line-1/64/Bidets-128.png;strokeColor=#1820F5;strokeWidth=1;fillColor=none;fontSize=7;fontColor=#1820F5;" parent="1" vertex="1">
          <mxGeometry x="-98.5" y="1595.75" width="32.5" height="32.5" as="geometry" />
        </mxCell>
        <mxCell id="Nrrt7rBhLRxhSk5ey4vq-56" value="" style="shape=image;html=1;verticalAlign=top;verticalLabelPosition=bottom;labelBackgroundColor=#ffffff;imageAspect=0;aspect=fixed;image=https://cdn2.iconfinder.com/data/icons/bathroom-line-1/64/faucet-128.png;strokeColor=#1820F5;strokeWidth=1;fillColor=none;fontSize=7;fontColor=#1820F5;" parent="1" vertex="1">
          <mxGeometry x="-73.36999999999989" y="1573.37" width="29.75" height="29.75" as="geometry" />
        </mxCell>
        <mxCell id="Nrrt7rBhLRxhSk5ey4vq-57" value="" style="shape=image;html=1;verticalAlign=top;verticalLabelPosition=bottom;labelBackgroundColor=#ffffff;imageAspect=0;aspect=fixed;image=https://cdn2.iconfinder.com/data/icons/bathroom-line-1/64/Tub-128.png;strokeColor=#1820F5;strokeWidth=1;fillColor=none;fontSize=7;fontColor=#1820F5;" parent="1" vertex="1">
          <mxGeometry x="-60.5" y="1593.87" width="32" height="32" as="geometry" />
        </mxCell>
        <mxCell id="Nrrt7rBhLRxhSk5ey4vq-58" value="" style="html=1;verticalLabelPosition=bottom;align=center;labelBackgroundColor=#ffffff;verticalAlign=top;strokeWidth=2;strokeColor=#0080F0;shadow=0;dashed=0;shape=mxgraph.ios7.icons.wifi;pointerEvents=1;fillColor=none;fontSize=7;fontColor=#1820F5;rotation=30;" parent="1" vertex="1">
          <mxGeometry x="-164.5" y="1513.87" width="29.7" height="21" as="geometry" />
        </mxCell>
        <mxCell id="Nrrt7rBhLRxhSk5ey4vq-59" value="" style="html=1;verticalLabelPosition=bottom;align=center;labelBackgroundColor=#ffffff;verticalAlign=top;strokeWidth=2;strokeColor=#0080F0;shadow=0;dashed=0;shape=mxgraph.ios7.icons.bluetooth;pointerEvents=1;fillColor=none;fontSize=7;fontColor=#1820F5;rotation=20;" parent="1" vertex="1">
          <mxGeometry x="-163.06999999999994" y="1664.54" width="15" height="28.799999999999997" as="geometry" />
        </mxCell>
        <mxCell id="Nrrt7rBhLRxhSk5ey4vq-60" value="" style="aspect=fixed;html=1;points=[];align=center;image;fontSize=12;image=img/lib/mscae/App_Service_Mobile_App.svg;strokeColor=#1820F5;strokeWidth=1;fillColor=none;" parent="1" vertex="1">
          <mxGeometry x="-112.5" y="1665.4899999999998" width="28.56" height="42" as="geometry" />
        </mxCell>
        <mxCell id="Nrrt7rBhLRxhSk5ey4vq-61" value="" style="image;html=1;image=img/lib/clip_art/networking/Wireless_Router_N_128x128.png;strokeColor=#1820F5;strokeWidth=1;fillColor=none;fontSize=7;fontColor=#1820F5;" parent="1" vertex="1">
          <mxGeometry x="-102.5" y="1447.87" width="77" height="55" as="geometry" />
        </mxCell>
        <mxCell id="Nrrt7rBhLRxhSk5ey4vq-62" value="" style="shape=image;html=1;verticalAlign=top;verticalLabelPosition=bottom;labelBackgroundColor=#ffffff;imageAspect=0;aspect=fixed;image=https://cdn4.iconfinder.com/data/icons/construction-hand-drawn/38/construction_hand_drawn_icon__worker-128.png;strokeColor=#1820F5;strokeWidth=1;fillColor=none;fontSize=20;fontColor=#1820F5;" parent="1" vertex="1">
          <mxGeometry x="-53.5" y="1665.9199999999998" width="43.9" height="43.9" as="geometry" />
        </mxCell>
        <mxCell id="Nrrt7rBhLRxhSk5ey4vq-63" value="User APP" style="text;html=1;strokeColor=none;fillColor=none;align=center;verticalAlign=middle;whiteSpace=wrap;rounded=0;fontColor=#3333FF;" parent="1" vertex="1">
          <mxGeometry x="-145.37" y="1706.4899999999998" width="97.75" height="20" as="geometry" />
        </mxCell>
        <mxCell id="Nrrt7rBhLRxhSk5ey4vq-64" value="" style="html=1;shadow=0;dashed=0;align=center;verticalAlign=middle;shape=mxgraph.arrows2.arrow;dy=0.6;dx=40;notch=0;strokeColor=#000000;fillColor=none;fontSize=10;fontColor=#000000;" parent="1" vertex="1">
          <mxGeometry x="65.5" y="1559.5" width="60" height="30" as="geometry" />
        </mxCell>
        <mxCell id="Nrrt7rBhLRxhSk5ey4vq-65" value="&lt;ul&gt;&lt;li&gt;If The Broken Module Is Real, Then Replace One New Wi-Fi Module&amp;nbsp;&lt;/li&gt;&lt;li&gt;Record New Module&#39;s S/N From PC Database of Plant&lt;/li&gt;&lt;/ul&gt;" style="text;html=1;strokeColor=none;fillColor=none;align=left;verticalAlign=middle;whiteSpace=wrap;rounded=0;fontSize=14;" parent="1" vertex="1">
          <mxGeometry x="-9.600000000000001" y="1710.33" width="215" height="50" as="geometry" />
        </mxCell>
        <mxCell id="Nrrt7rBhLRxhSk5ey4vq-67" value="" style="shape=image;html=1;verticalAlign=top;verticalLabelPosition=bottom;labelBackgroundColor=#ffffff;imageAspect=0;aspect=fixed;image=https://cdn1.iconfinder.com/data/icons/ecommerce-and-business-icon-set/128/bar-code.png" parent="1" vertex="1">
          <mxGeometry x="24.4" y="1821" width="90" height="90" as="geometry" />
        </mxCell>
        <mxCell id="Nrrt7rBhLRxhSk5ey4vq-68" value="" style="curved=1;endArrow=none;html=1;endFill=0;entryX=0;entryY=0.5;entryDx=0;entryDy=0;entryPerimeter=0;strokeWidth=2;" parent="1" edge="1">
          <mxGeometry width="50" height="50" relative="1" as="geometry">
            <mxPoint x="105.40000000000023" y="1829.0000000000002" as="sourcePoint" />
            <mxPoint x="144.39999999999978" y="1853.5000000000002" as="targetPoint" />
            <Array as="points">
              <mxPoint x="155.40000000000006" y="1829" />
              <mxPoint x="105.40000000000006" y="1791" />
              <mxPoint x="130.40000000000006" y="1841" />
            </Array>
          </mxGeometry>
        </mxCell>
        <mxCell id="Nrrt7rBhLRxhSk5ey4vq-69" value="" style="aspect=fixed;pointerEvents=1;shadow=0;dashed=0;html=1;strokeColor=none;labelPosition=center;verticalLabelPosition=bottom;verticalAlign=top;align=center;fillColor=#00188D;shape=mxgraph.azure.computer" parent="1" vertex="1">
          <mxGeometry x="144.4" y="1830" width="50" height="45" as="geometry" />
        </mxCell>
        <mxCell id="sBYjH0_UJTp_EUdpmLKk-76" value="" style="rounded=0;whiteSpace=wrap;html=1;fillColor=none;fontSize=14;fontColor=#000000;strokeColor=#FFB570;strokeWidth=2;" parent="1" vertex="1">
          <mxGeometry x="-800" y="2800" width="1930" height="730" as="geometry" />
        </mxCell>
        <mxCell id="DuwbLyz6ARv8P-jQa7M--1" value="" style="shape=image;html=1;verticalAlign=top;verticalLabelPosition=bottom;labelBackgroundColor=#ffffff;imageAspect=0;aspect=fixed;image=https://cdn1.iconfinder.com/data/icons/ecommerce-and-business-icon-set/128/bar-code.png" vertex="1" parent="1">
          <mxGeometry x="195.7" y="1513.45" width="60" height="60" as="geometry" />
        </mxCell>
        <mxCell id="DuwbLyz6ARv8P-jQa7M--2" value="" style="curved=1;endArrow=none;html=1;endFill=0;entryX=0;entryY=0.5;entryDx=0;entryDy=0;entryPerimeter=0;strokeWidth=2;" edge="1" parent="1">
          <mxGeometry width="50" height="50" relative="1" as="geometry">
            <mxPoint x="251.6999999999999" y="1518.9500000000005" as="sourcePoint" />
            <mxPoint x="290.69999999999993" y="1543.4500000000005" as="targetPoint" />
            <Array as="points">
              <mxPoint x="301.70000000000005" y="1518.95" />
              <mxPoint x="251.70000000000002" y="1480.95" />
              <mxPoint x="276.70000000000005" y="1530.95" />
            </Array>
          </mxGeometry>
        </mxCell>
        <mxCell id="DuwbLyz6ARv8P-jQa7M--3" value="" style="shape=mxgraph.cisco.computers_and_peripherals.printer;html=1;pointerEvents=1;dashed=0;fillColor=#036897;strokeColor=#ffffff;strokeWidth=2;verticalLabelPosition=bottom;verticalAlign=top;align=center;outlineConnect=0;" vertex="1" parent="1">
          <mxGeometry x="267.83000000000004" y="1543.45" width="81.57" height="30" as="geometry" />
        </mxCell>
        <mxCell id="DuwbLyz6ARv8P-jQa7M--5" value="" style="rounded=0;whiteSpace=wrap;html=1;strokeWidth=1;fillColor=none;" vertex="1" parent="1">
          <mxGeometry x="220" y="1603.45" width="40" height="22" as="geometry" />
        </mxCell>
        <mxCell id="DuwbLyz6ARv8P-jQa7M--6" style="edgeStyle=none;rounded=0;orthogonalLoop=1;jettySize=auto;html=1;exitX=1;exitY=0;exitDx=0;exitDy=0;startArrow=classic;startFill=1;" edge="1" parent="1" source="DuwbLyz6ARv8P-jQa7M--5" target="DuwbLyz6ARv8P-jQa7M--5">
          <mxGeometry relative="1" as="geometry" />
        </mxCell>
        <mxCell id="DuwbLyz6ARv8P-jQa7M--7" style="edgeStyle=none;rounded=0;orthogonalLoop=1;jettySize=auto;html=1;exitX=1;exitY=1;exitDx=0;exitDy=0;startArrow=classic;startFill=1;" edge="1" parent="1" source="DuwbLyz6ARv8P-jQa7M--5" target="DuwbLyz6ARv8P-jQa7M--5">
          <mxGeometry relative="1" as="geometry" />
        </mxCell>
        <mxCell id="DuwbLyz6ARv8P-jQa7M--8" value="" style="ellipse;whiteSpace=wrap;html=1;aspect=fixed;strokeWidth=1;fillColor=none;" vertex="1" parent="1">
          <mxGeometry x="236" y="1610.45" width="8" height="8" as="geometry" />
        </mxCell>
        <mxCell id="DuwbLyz6ARv8P-jQa7M--9" value="Scan &quot;Broken&quot; Wi-Fi Module Product SKU Label" style="text;html=1;strokeColor=none;fillColor=none;align=center;verticalAlign=middle;whiteSpace=wrap;rounded=0;fontSize=10;" vertex="1" parent="1">
          <mxGeometry x="185" y="1576.75" width="130" height="20" as="geometry" />
        </mxCell>
      </root>
    </mxGraphModel>
  </diagram>
</mxfile>
